<svg xmlns="http://www.w3.org/2000/svg" viewBox="0 0 93.36 31.54"><defs><style>.cls-1{fill:#fff;}.cls-2{fill:#fff;}</style></defs><g id="Layer_2" data-name="Layer 2"><path class="cls-1" d="M0,0V31.54H19V0ZM7.21,4.32a3,3,0,0,1,2.27-.89,3,3,0,0,1,3.15,3.15A3,3,0,0,1,9.48,9.74,3,3,0,0,1,6.32,6.58,3.06,3.06,0,0,1,7.21,4.32ZM12.66,26H6.44V10.9h6.22Z"/><path class="cls-2" d="M29.32,11.37a7.16,7.16,0,0,0-7.42,7.39,7.19,7.19,0,0,0,7.42,7.42,7.16,7.16,0,0,0,7.39-7.42A7.14,7.14,0,0,0,29.32,11.37Zm0,13.06a5.33,5.33,0,0,1-5.42-5.67,5.42,5.42,0,1,1,10.82,0A5.31,5.31,0,0,1,29.32,24.43Z"/><path class="cls-2" d="M39.59,5.51V26h2V5.51Z"/><path class="cls-2" d="M51.84,11.37a7.15,7.15,0,0,0-7.41,7.39,7.4,7.4,0,1,0,14.8,0A7.13,7.13,0,0,0,51.84,11.37Zm0,13.06a5.33,5.33,0,0,1-5.42-5.67,5.42,5.42,0,1,1,10.82,0A5.31,5.31,0,0,1,51.84,24.43Z"/><path class="cls-2" d="M74.84,11.48v2.8a6.58,6.58,0,0,0-5.76-2.91c-4.15,0-7.3,2.85-7.3,7a7,7,0,0,0,7.3,7.08,6.55,6.55,0,0,0,5.68-2.82v1.86c0,3.59-1.69,5.28-5.37,5.28a8.69,8.69,0,0,1-5.73-2l-1,1.49a10.17,10.17,0,0,0,6.78,2.24c4.82,0,7.28-2.26,7.28-7.27V11.48ZM69.28,23.74a5.2,5.2,0,0,1-5.51-5.34,5.52,5.52,0,0,1,11,0A5.22,5.22,0,0,1,69.28,23.74Z"/><path class="cls-2" d="M91.39,11.48v7c0,3.32-1.91,5.28-5,5.28-2.77,0-4.37-1.57-4.37-4.67V11.48h-2v7.75c0,4.18,2.44,6.25,6.15,6.25a5.75,5.75,0,0,0,5.14-2.65v1.69c0,3.59-1.52,5.28-4.9,5.28a7.47,7.47,0,0,1-5.28-2l-1,1.49a9.15,9.15,0,0,0,6.37,2.24c4.48,0,6.78-2.26,6.78-7.27V11.48Z"/></g></svg>